<?xml version="1.0" encoding="utf-8"?>
<!-- Generator: Adobe Illustrator 27.5.0, SVG Export Plug-In . SVG Version: 6.00 Build 0)  -->
<svg version="1.1" xmlns="http://www.w3.org/2000/svg" xmlns:xlink="http://www.w3.org/1999/xlink" x="0px" y="0px"
	 viewBox="0 0 500 500" style="enable-background:new 0 0 500 500;" xml:space="preserve">
<g id="BACKGROUND">
	<rect style="fill:#FFFFFF;" width="500" height="500"/>
</g>
<g id="OBJECTS">
	<g>
		<g>
			<g>
				
					<ellipse transform="matrix(0.7071 -0.7071 0.7071 0.7071 -84.1549 241.0278)" style="fill:#EEE6D4;" cx="248.869" cy="222.098" rx="170.059" ry="170.059"/>
				<g>
					<path style="fill:#EEE6D4;" d="M248.869,407.785c-49.599,0-96.229-19.315-131.301-54.387
						c-35.072-35.072-54.387-81.702-54.387-131.301c0-49.599,19.315-96.229,54.387-131.3C152.64,55.725,199.27,36.41,248.869,36.41
						c49.599,0,96.229,19.315,131.3,54.387c35.072,35.072,54.388,81.701,54.388,131.3c0,49.599-19.315,96.229-54.388,131.301
						C345.098,388.47,298.468,407.785,248.869,407.785z M248.869,39.36c-100.762,0-182.737,81.977-182.737,182.737
						c0,100.761,81.975,182.737,182.737,182.737s182.736-81.977,182.736-182.737C431.605,121.337,349.631,39.36,248.869,39.36z"/>
				</g>
			</g>
			<g>
				<path style="fill:#BBC8DD;" d="M355,436.746c0,3.454-2.8,6.254-6.254,6.254H163.254c-3.454,0-6.254-2.8-6.254-6.254v-0.492
					c0-3.454,2.8-6.254,6.254-6.254h185.492c3.454,0,6.254,2.8,6.254,6.254V436.746z"/>
				<g>
					<g>
						<g>
							<g>
								<rect x="250" y="292" style="fill:#6F7174;" width="19" height="39"/>
								<path style="fill:#4D4E50;" d="M269,292v13.747c-7-0.29-14-0.579-19-0.818V292H269z"/>
							</g>
							<path style="fill:#303043;" d="M328,278.644c0,9.033-7.323,16.356-16.356,16.356H207.356
								c-9.033,0-16.356-7.323-16.356-16.356v-0.287c0-9.033,7.323-16.356,16.356-16.356h104.287
								c9.033,0,16.356,7.323,16.356,16.356V278.644z"/>
							<g>
								<g>
									<g>
										<g>
											<path style="fill:#303043;" d="M193,406h-8v-17.746c0-3.908,0.9-7.318,3.567-9.863c2.632-2.51,6.148-3.688,10.953-4.453
												c3.091-0.494,5.371,0.063,5.899,0.063H251v5h-45.81c-2.333,0-7.145,0.76-10.44,3.916c-1.309,1.254-1.75,3.291-1.75,5.338
												V406z"/>
										</g>
									</g>
									<g>
										<rect x="223" y="379" style="fill:#303043;" width="9" height="47"/>
										<g>
											<path style="fill:#727272;" d="M231.673,422.923c0,0.573-0.037,1.141-0.105,1.695
												c-0.835,6.69-6.542,11.869-13.462,11.869c-6.918,0-12.624-5.179-13.46-11.869c-0.067-0.555-0.105-1.122-0.105-1.695
												c0-7.491,6.074-13.566,13.564-13.566C225.598,409.357,231.673,415.432,231.673,422.923z"/>
											<path style="fill:#303043;" d="M231.673,423.113c0,0.574-0.037,0.887-0.105,1.887h-26.921
												c-0.067-1-0.105-1.313-0.105-1.887c0-7.49,6.074-13.566,13.564-13.566C225.598,409.547,231.673,415.623,231.673,423.113z
												"/>
										</g>
									</g>
									<g>
										<rect x="185" y="384" style="fill:#303043;" width="8" height="42"/>
										<g>
											<path style="fill:#727272;" d="M193.551,422.923c0,0.573-0.037,1.141-0.104,1.695
												c-0.835,6.69-6.543,11.869-13.461,11.869c-6.919,0-12.625-5.179-13.461-11.869c-0.067-0.555-0.104-1.122-0.104-1.695
												c0-7.491,6.073-13.566,13.564-13.566C187.477,409.357,193.551,415.432,193.551,422.923z"/>
											<path style="fill:#303043;" d="M193.551,423.113c0,0.574-0.037,0.887-0.104,1.887h-26.922
												c-0.067-1-0.104-1.313-0.104-1.887c0-7.49,6.073-13.566,13.564-13.566C187.477,409.547,193.551,415.623,193.551,423.113z
												"/>
										</g>
									</g>
								</g>
								<g>
									<g>
										<rect x="288" y="379" style="fill:#303043;" width="9" height="47"/>
										<g>
											<path style="fill:#727272;" d="M297.196,422.923c0,0.573-0.038,1.141-0.105,1.695
												c-0.835,6.69-6.543,11.869-13.461,11.869c-6.919,0-12.625-5.179-13.46-11.869c-0.068-0.555-0.104-1.122-0.104-1.695
												c0-7.491,6.073-13.566,13.564-13.566C291.12,409.357,297.196,415.432,297.196,422.923z"/>
											<path style="fill:#303043;" d="M297.196,423.113c0,0.574-0.038,0.887-0.105,1.887H270.17
												c-0.068-1-0.104-1.313-0.104-1.887c0-7.49,6.073-13.566,13.564-13.566C291.12,409.547,297.196,415.623,297.196,423.113z"
												/>
										</g>
									</g>
									<g>
										<g>
											<g>
												<path style="fill:#303043;" d="M324,406h9v-17.746c0-3.908-1.125-7.318-3.791-9.863
													c-2.633-2.51-6.262-3.688-11.066-4.453c-3.092-0.494-5.483,0.063-6.011,0.063H267v5h45.361
													c2.332,0,6.869,0.76,10.164,3.916c1.309,1.254,1.475,3.291,1.475,5.338V406z"/>
											</g>
										</g>
										<rect x="324" y="384" style="fill:#303043;" width="9" height="42"/>
										<g>
											<path style="fill:#727272;" d="M305.209,422.923c0,0.573,0.037,1.141,0.104,1.695c0.835,6.69,6.543,11.869,13.461,11.869
												s12.625-5.179,13.461-11.869c0.066-0.555,0.103-1.122,0.103-1.695c0-7.491-6.073-13.566-13.564-13.566
												C311.283,409.357,305.209,415.432,305.209,422.923z"/>
											<path style="fill:#303043;" d="M305.209,423.113c0,0.574,0.037,0.887,0.104,1.887h26.922
												c0.066-1,0.103-1.313,0.103-1.887c0-7.49-6.073-13.566-13.564-13.566C311.283,409.547,305.209,415.623,305.209,423.113z"
												/>
										</g>
									</g>
								</g>
								<g>
									<rect x="246" y="324" style="fill:#303043;" width="27" height="60"/>
									<rect x="251" y="324" style="fill:#595981;" width="8" height="60"/>
								</g>
							</g>
							<rect x="240" y="287" style="fill:#303043;" width="40" height="13"/>
						</g>
						<g>
							<path style="fill:#303043;" d="M239.416,317c0,1.757-1.2,3-2.68,3h-46.462c-1.481,0-2.68-1.243-2.68-3l0,0
								c0-1.759,1.2-3,2.68-3h46.462C238.216,314,239.416,315.241,239.416,317L239.416,317z"/>
							<g>
								<path style="fill:#303043;" d="M234.125,319.035c-0.478,0-0.959-0.163-1.351-0.498c-0.876-0.746-0.982-2.062-0.235-2.938
									l20.549-24.123c0.747-0.878,2.063-0.983,2.939-0.235c0.876,0.746,0.982,2.061,0.234,2.938l-20.549,24.123
									C235.301,318.786,234.715,319.035,234.125,319.035z"/>
							</g>
						</g>
					</g>
					<g>
						<g>
							<path style="fill:#303043;" d="M111.723,155.835c-0.345,0-0.696-0.076-1.028-0.235c-1.187-0.569-1.688-1.992-1.119-3.179
								l31.271-65.221c0.568-1.187,1.991-1.688,3.179-1.118c1.187,0.569,1.688,1.992,1.118,3.178l-31.27,65.222
								C113.464,155.336,112.611,155.835,111.723,155.835z"/>
						</g>
						<path style="fill:#DF9B30;" d="M386.785,247.613c-4.79-5.05-11.692-6.839-21.276-8.092c-10.878-1.421-27.758-2.29-50.17-2.585
							c-13.975-0.186-46.735-1.98-51.147-19.988c-1.47-6.003-0.861-13.372-1.215-19.557c-0.321-5.635-0.601-11.273-0.851-16.912
							c-0.461-10.374-0.907-20.748-1.495-31.115c-1.078-18.993-2.022-37.992-3.102-56.984c-0.213-3.749-0.624-7.54-0.624-11.298
							c0-10.82-8.284-24.911-22.481-26.803c-26.804-3.573-83.984-9.828-89.344,0c0,0,12.915,162.4,16.241,175.258
							c3.326,12.859,48.065,24.07,53.245,26.331c3.414,1.491,22.513,2.056,37.725,1.987c8.992,11.122,13.825,22.518,33.06,24.252
							c4.438,0.4,84.494-5.226,87.358-5.032c9.848,0.649,18.336-6.616,18.959-16.229
							C391.978,256.035,390.199,251.211,386.785,247.613z"/>
						<g>
							<path style="fill:#A36233;" d="M212.461,279.878c-24.274-2.189-43.195-9.541-56.369-21.931
								c-13.081-12.303-15.535-25.199-15.894-27.66c-0.086-0.594-0.143-1.192-0.169-1.792l-7.086-160.408
								c-0.435-9.859,7.204-18.205,17.064-18.641c9.861-0.436,18.205,7.205,18.641,17.064c0.652,14.768,1.293,29.54,1.929,44.31
								c1.14,26.444,1.96,52.945,3.531,79.365c0.335,5.619,0.538,11.2,0.613,16.825c0.121,9.062-0.655,20.816,7.887,26.502
								c6.971,4.64,13.761,7.842,22.1,9.274c7.173,1.231,14.725,1.952,22.003,2.035c22.417,0.253,39.296,1.108,50.174,2.54
								c9.583,1.262,16.483,3.08,21.264,8.24c3.407,3.679,5.176,8.615,4.855,13.543c-0.645,9.849-6.911,14.499-16.759,13.855
								c-2.864-0.192-24.904,1.306-59.936-2.44C221.542,280.05,216.898,280.277,212.461,279.878z"/>
						</g>
						<g>
							<path style="fill:#A36233;" d="M247.454,98.171c-10.273-0.925-20.735-0.408-31.039-0.406
								c-5.173,0.001-10.347,0.003-15.52,0.004c-5.134,0.001-10.41-0.325-15.52,0.234c-0.862,0.094-0.862,1.321,0,1.415
								c5.11,0.559,10.386,0.233,15.52,0.234c5.173,0.001,10.347,0.003,15.52,0.004c10.304,0.002,20.766,0.519,31.039-0.405
								C248.113,99.191,248.113,98.23,247.454,98.171z"/>
							<path style="fill:#A36233;" d="M247.454,144.036c-10.273-0.924-20.735-0.408-31.039-0.405
								c-5.173,0.001-10.347,0.002-15.52,0.004c-5.134,0.001-10.41-0.325-15.52,0.234c-0.862,0.094-0.862,1.32,0,1.415
								c5.11,0.559,10.386,0.233,15.52,0.234c5.173,0.001,10.347,0.002,15.52,0.003c10.304,0.002,20.766,0.52,31.039-0.405
								C248.113,145.057,248.113,144.095,247.454,144.036z"/>
							<path style="fill:#A36233;" d="M248.703,171.266c-10.264-1.152-20.917-0.361-31.233-0.356l-15.653,0.009
								c-5.531,0.002-11.208-0.302-16.698,0.431c-0.521,0.07-0.521,0.787,0,0.856c5.127,0.685,10.416,0.428,15.582,0.43
								l15.651,0.009c5.218,0.003,10.436,0.011,15.653,0.007c5.554-0.005,11.169,0.258,16.698-0.363
								C249.327,172.219,249.327,171.336,248.703,171.266z"/>
							<path style="fill:#A36233;" d="M248.703,120.039c-10.264-1.152-20.917-0.361-31.233-0.356l-15.653,0.008
								c-5.531,0.003-11.208-0.302-16.698,0.431c-0.521,0.07-0.521,0.787,0,0.856c5.127,0.685,10.416,0.428,15.582,0.431
								l15.651,0.008c5.218,0.002,10.436,0.011,15.653,0.007c5.554-0.004,11.169,0.259,16.698-0.362
								C249.327,120.992,249.327,120.109,248.703,120.039z"/>
						</g>
						<g>
							<g>
								<path style="fill:#303043;" d="M228.765,128.138c-1.004,0-1.938-0.639-2.265-1.646
									c-0.125-0.383-12.574-38.561-20.489-57.909c-7.35-17.968-26.195-18.175-26.385-18.175c-1.316,0-2.383-1.067-2.383-2.382
									c0-1.316,1.067-2.383,2.383-2.383c0.222,0,22.248,0.242,30.796,21.136c7.981,19.511,20.484,57.854,20.609,58.238
									c0.407,1.251-0.277,2.596-1.528,3.003C229.258,128.101,229.01,128.138,228.765,128.138z"/>
							</g>
							<g>
								
									<rect x="100.033" y="135.045" transform="matrix(0.9695 -0.2453 0.2453 0.9695 -32.7578 46.9437)" style="fill:#FFFFFF;" width="144.149" height="39.909"/>
								<g>
									
										<text transform="matrix(0.9695 -0.2453 0.2453 0.9695 121.0798 179.5311)" style="fill:#7E8A17; font-family:'Bebas'; font-size:27.9873px;">VACANCY</text>
								</g>
							</g>
						</g>
					</g>
				</g>
			</g>
		</g>
		<g>
			<path style="fill:#FFFFFF;" d="M298.335,153.4c0,0,25.199-3.6,27.599-28.799c0,0,3.6,27.001,26.399,26.4
				c-1.2,1.8-24.602,2.998-25.8,26.398C326.533,177.398,327.134,151.6,298.335,153.4z"/>
			<path style="fill:#FFFFFF;" d="M333.142,196.172c0,0,12.313-1.759,13.485-14.072c0,0,1.759,13.194,12.899,12.9
				c-0.586,0.879-12.021,1.465-12.607,12.899C346.92,207.899,347.214,195.292,333.142,196.172z"/>
			<path style="fill:#FFFFFF;" d="M288.21,209.899c0,0,9.449-1.35,10.349-10.799c0,0,1.35,10.126,9.899,9.9
				c-0.449,0.675-9.225,1.124-9.675,9.899C298.783,218.899,299.009,209.224,288.21,209.899z"/>
		</g>
	</g>
</g>
<g id="DESIGNED_BY_FREEPIK">
	<g id="XMLID_76_">
		<g id="XMLID_929_">
			<path id="XMLID_958_" style="fill:#CCC5B6;" d="M180.843,460.134c-0.246,0-0.435,0.085-0.567,0.255
				c-0.133,0.17-0.199,0.421-0.199,0.753v2.393c-0.304-0.332-0.617-0.579-0.937-0.739c-0.321-0.159-0.715-0.24-1.182-0.24
				c-0.807,0-1.458,0.283-1.953,0.849c-0.494,0.566-0.742,1.355-0.742,2.369c0,0.479,0.063,0.923,0.188,1.335
				c0.125,0.412,0.307,0.77,0.549,1.074c0.241,0.305,0.526,0.539,0.857,0.703c0.33,0.164,0.689,0.246,1.078,0.246
				c0.293,0,0.563-0.04,0.809-0.122c0.248-0.08,0.477-0.199,0.689-0.356c0.212-0.155,0.426-0.358,0.643-0.607v0.16
				c0,0.297,0.072,0.525,0.217,0.685c0.145,0.16,0.328,0.24,0.549,0.24c0.225,0,0.409-0.077,0.552-0.231
				c0.143-0.154,0.213-0.386,0.213-0.694v-7.147c0-0.305-0.066-0.534-0.199-0.69C181.277,460.212,181.088,460.134,180.843,460.134z
				 M179.778,466.975c-0.141,0.306-0.329,0.533-0.563,0.682c-0.236,0.148-0.496,0.223-0.781,0.223c-0.28,0-0.539-0.078-0.777-0.236
				c-0.237-0.154-0.424-0.387-0.561-0.695c-0.136-0.31-0.205-0.683-0.205-1.122c0-0.415,0.063-0.78,0.193-1.096
				c0.128-0.314,0.31-0.556,0.543-0.724c0.233-0.168,0.499-0.252,0.795-0.252c0.285,0,0.547,0.082,0.787,0.245
				c0.239,0.165,0.429,0.402,0.569,0.713c0.141,0.311,0.211,0.682,0.211,1.113C179.988,466.283,179.919,466.667,179.778,466.975z"/>
			<path id="XMLID_954_" style="fill:#CCC5B6;" d="M188.208,466.054c0.233-0.122,0.35-0.385,0.35-0.793
				c0-0.438-0.113-0.87-0.338-1.294c-0.225-0.423-0.564-0.769-1.019-1.035c-0.453-0.268-0.996-0.399-1.628-0.399
				c-0.487,0-0.93,0.077-1.329,0.233c-0.4,0.156-0.737,0.381-1.01,0.674c-0.272,0.293-0.48,0.643-0.623,1.054
				c-0.143,0.409-0.213,0.853-0.213,1.332c0,1.017,0.289,1.822,0.867,2.415c0.577,0.593,1.387,0.891,2.427,0.891
				c0.456,0,0.858-0.06,1.207-0.178c0.352-0.12,0.641-0.268,0.874-0.448c0.231-0.181,0.404-0.368,0.519-0.565
				c0.115-0.196,0.172-0.366,0.172-0.514c0-0.166-0.052-0.294-0.155-0.386c-0.102-0.09-0.237-0.137-0.403-0.137
				c-0.154,0-0.273,0.036-0.356,0.107c-0.203,0.19-0.366,0.34-0.492,0.451c-0.126,0.111-0.265,0.216-0.415,0.313
				c-0.15,0.098-0.305,0.167-0.466,0.214c-0.16,0.044-0.337,0.067-0.531,0.067c-0.289,0-0.553-0.07-0.792-0.213
				c-0.239-0.143-0.432-0.355-0.576-0.636c-0.145-0.281-0.219-0.605-0.222-0.974h3.169
				C187.646,466.234,187.975,466.174,188.208,466.054z M184.054,465.315c0.055-0.547,0.212-0.96,0.472-1.238
				c0.259-0.28,0.59-0.418,0.994-0.418c0.423,0,0.764,0.137,1.024,0.411c0.259,0.275,0.409,0.69,0.448,1.245H184.054z"/>
			<path id="XMLID_952_" style="fill:#CCC5B6;" d="M193.635,465.617c-0.319-0.17-0.729-0.316-1.231-0.439
				c-0.424-0.104-0.756-0.19-0.997-0.261c-0.242-0.07-0.434-0.161-0.576-0.27c-0.143-0.108-0.213-0.247-0.213-0.418
				c0-0.186,0.097-0.342,0.29-0.465c0.194-0.126,0.437-0.188,0.73-0.188c0.286,0,0.511,0.047,0.677,0.142
				c0.166,0.096,0.31,0.223,0.433,0.381c0.151,0.189,0.284,0.331,0.401,0.426c0.116,0.096,0.258,0.144,0.424,0.144
				c0.23,0,0.407-0.061,0.532-0.178c0.124-0.119,0.186-0.271,0.186-0.457c0-0.171-0.058-0.345-0.175-0.523
				c-0.116-0.178-0.286-0.34-0.51-0.485c-0.223-0.147-0.502-0.265-0.837-0.351c-0.334-0.088-0.711-0.131-1.13-0.131
				c-0.535,0-0.99,0.085-1.367,0.259c-0.378,0.172-0.665,0.402-0.859,0.69c-0.194,0.289-0.291,0.597-0.291,0.92
				c0,0.364,0.105,0.671,0.315,0.921c0.21,0.249,0.489,0.45,0.839,0.602c0.351,0.152,0.804,0.298,1.362,0.435
				c0.494,0.12,0.849,0.244,1.065,0.375c0.216,0.131,0.323,0.338,0.323,0.622c0,0.187-0.104,0.352-0.311,0.497
				c-0.207,0.144-0.474,0.216-0.798,0.216c-0.4,0-0.715-0.07-0.947-0.213c-0.231-0.144-0.431-0.357-0.597-0.647
				c-0.082-0.149-0.169-0.267-0.261-0.351c-0.091-0.082-0.221-0.124-0.39-0.124c-0.194,0-0.355,0.064-0.481,0.19
				c-0.128,0.126-0.19,0.278-0.19,0.456c0,0.27,0.099,0.537,0.296,0.805c0.198,0.267,0.505,0.489,0.92,0.667
				c0.415,0.179,0.914,0.268,1.495,0.268c0.609,0,1.127-0.082,1.552-0.246c0.425-0.164,0.747-0.405,0.964-0.725
				c0.218-0.318,0.326-0.701,0.326-1.148c0-0.297-0.082-0.56-0.246-0.792C194.194,465.988,193.953,465.787,193.635,465.617z"/>
			<path id="XMLID_950_" style="fill:#CCC5B6;" d="M196.243,462.543c-0.238,0-0.431,0.081-0.579,0.243
				c-0.149,0.162-0.222,0.404-0.222,0.724v4.636c0,0.316,0.073,0.56,0.222,0.73c0.148,0.17,0.341,0.255,0.579,0.255
				s0.433-0.083,0.588-0.249c0.154-0.166,0.231-0.412,0.231-0.736v-4.683c0-0.288-0.078-0.515-0.231-0.677
				C196.676,462.624,196.48,462.543,196.243,462.543z"/>
			<path id="XMLID_949_" style="fill:#CCC5B6;" d="M196.261,460.204c-0.217,0-0.409,0.073-0.573,0.223
				c-0.165,0.149-0.246,0.337-0.246,0.567c0,0.254,0.08,0.449,0.24,0.588c0.16,0.138,0.353,0.208,0.579,0.208
				c0.217,0,0.405-0.071,0.563-0.212c0.158-0.14,0.238-0.335,0.238-0.584c0-0.258-0.081-0.453-0.244-0.588
				C196.656,460.272,196.471,460.204,196.261,460.204z"/>
			<path id="XMLID_945_" style="fill:#CCC5B6;" d="M203.382,462.543c-0.217,0-0.396,0.077-0.535,0.231
				c-0.139,0.154-0.208,0.372-0.208,0.652v0.221c-0.288-0.376-0.602-0.651-0.938-0.829c-0.337-0.175-0.734-0.264-1.193-0.264
				c-0.384,0-0.736,0.068-1.056,0.204c-0.321,0.138-0.604,0.34-0.849,0.609c-0.245,0.268-0.433,0.599-0.566,0.991
				c-0.133,0.392-0.199,0.831-0.199,1.317c0,0.653,0.108,1.228,0.327,1.728c0.217,0.498,0.529,0.886,0.934,1.163
				c0.406,0.276,0.88,0.415,1.422,0.415c0.45,0,0.839-0.091,1.166-0.272c0.327-0.182,0.614-0.447,0.864-0.797
				c-0.008,0.531-0.02,0.916-0.036,1.155c-0.016,0.24-0.07,0.465-0.163,0.674c-0.093,0.209-0.255,0.373-0.486,0.489
				c-0.231,0.117-0.557,0.176-0.977,0.176c-0.205,0-0.387-0.02-0.545-0.057c-0.159-0.038-0.294-0.095-0.406-0.171
				c-0.112-0.078-0.216-0.171-0.309-0.28c-0.093-0.108-0.183-0.217-0.269-0.323c-0.178-0.21-0.386-0.315-0.624-0.315
				c-0.189,0-0.353,0.062-0.486,0.188c-0.135,0.123-0.202,0.284-0.202,0.482c0,0.262,0.119,0.516,0.356,0.764
				c0.238,0.247,0.576,0.448,1.014,0.605c0.439,0.155,0.938,0.233,1.496,0.233c0.609,0,1.119-0.061,1.528-0.184
				c0.409-0.122,0.741-0.311,0.994-0.563c0.253-0.254,0.438-0.574,0.551-0.961c0.115-0.389,0.173-0.852,0.173-1.39v-4.706
				c0-0.384-0.051-0.678-0.155-0.882C203.902,462.646,203.695,462.543,203.382,462.543z M202.356,466.908
				c-0.151,0.291-0.346,0.508-0.586,0.653c-0.239,0.144-0.493,0.217-0.762,0.217c-0.455,0-0.826-0.168-1.113-0.505
				c-0.287-0.336-0.431-0.834-0.431-1.49c0-0.648,0.139-1.149,0.418-1.501c0.279-0.352,0.649-0.528,1.113-0.528
				c0.475,0,0.857,0.184,1.148,0.553c0.291,0.367,0.437,0.882,0.437,1.542C202.581,466.265,202.505,466.617,202.356,466.908z"/>
			<path id="XMLID_944_" style="fill:#CCC5B6;" d="M210.734,463.61c-0.165-0.339-0.417-0.602-0.753-0.788
				c-0.337-0.187-0.718-0.279-1.146-0.279c-0.439,0-0.828,0.088-1.166,0.264c-0.338,0.177-0.65,0.452-0.934,0.828v-0.195
				c0-0.193-0.034-0.358-0.104-0.493c-0.069-0.134-0.162-0.234-0.276-0.302c-0.114-0.068-0.244-0.102-0.387-0.102
				c-0.233,0-0.417,0.076-0.552,0.229c-0.134,0.152-0.201,0.383-0.201,0.691v4.683c0,0.316,0.076,0.56,0.226,0.73
				c0.15,0.17,0.342,0.255,0.576,0.255c0.241,0,0.439-0.082,0.59-0.246c0.152-0.164,0.228-0.411,0.228-0.739v-2.03
				c0-0.66,0.04-1.11,0.119-1.353c0.11-0.3,0.284-0.537,0.523-0.71c0.237-0.172,0.5-0.258,0.788-0.258
				c0.444,0,0.74,0.143,0.888,0.425c0.148,0.282,0.223,0.691,0.223,1.226v2.7c0,0.316,0.074,0.56,0.226,0.73
				c0.15,0.17,0.346,0.255,0.587,0.255c0.238,0,0.431-0.083,0.578-0.249c0.149-0.166,0.224-0.412,0.224-0.736v-3.016
				c0-0.357-0.017-0.648-0.048-0.878C210.911,464.023,210.842,463.809,210.734,463.61z"/>
			<path id="XMLID_939_" style="fill:#CCC5B6;" d="M217.578,466.054c0.233-0.122,0.35-0.385,0.35-0.793
				c0-0.438-0.113-0.87-0.338-1.294c-0.226-0.423-0.565-0.769-1.019-1.035c-0.453-0.268-0.996-0.399-1.628-0.399
				c-0.487,0-0.93,0.077-1.33,0.233c-0.4,0.156-0.736,0.381-1.009,0.674c-0.273,0.293-0.481,0.643-0.624,1.054
				c-0.142,0.409-0.213,0.853-0.213,1.332c0,1.017,0.289,1.822,0.866,2.415c0.578,0.593,1.387,0.891,2.428,0.891
				c0.455,0,0.858-0.06,1.208-0.178c0.351-0.12,0.64-0.268,0.872-0.448c0.232-0.181,0.405-0.368,0.52-0.565
				c0.114-0.196,0.172-0.366,0.172-0.514c0-0.166-0.051-0.294-0.154-0.386c-0.103-0.09-0.238-0.137-0.404-0.137
				c-0.154,0-0.273,0.036-0.356,0.107c-0.201,0.19-0.366,0.34-0.492,0.451c-0.128,0.111-0.266,0.216-0.416,0.313
				c-0.151,0.098-0.307,0.167-0.466,0.214c-0.161,0.044-0.338,0.067-0.532,0.067c-0.289,0-0.553-0.07-0.792-0.213
				c-0.239-0.143-0.431-0.355-0.575-0.636c-0.145-0.281-0.219-0.605-0.223-0.974h3.169
				C217.016,466.234,217.344,466.174,217.578,466.054z M213.423,465.315c0.056-0.547,0.212-0.96,0.471-1.238
				c0.259-0.28,0.591-0.418,0.995-0.418c0.423,0,0.765,0.137,1.024,0.411c0.259,0.275,0.409,0.69,0.448,1.245H213.423z"/>
			<path id="XMLID_936_" style="fill:#CCC5B6;" d="M223.963,460.134c-0.245,0-0.435,0.085-0.567,0.255
				c-0.132,0.17-0.199,0.421-0.199,0.753v2.393c-0.304-0.332-0.617-0.579-0.938-0.739c-0.32-0.159-0.714-0.24-1.181-0.24
				c-0.808,0-1.458,0.283-1.953,0.849c-0.495,0.566-0.741,1.355-0.741,2.369c0,0.479,0.062,0.923,0.186,1.335
				c0.125,0.412,0.308,0.77,0.549,1.074c0.241,0.305,0.527,0.539,0.857,0.703c0.33,0.164,0.689,0.246,1.077,0.246
				c0.293,0,0.563-0.04,0.81-0.122c0.248-0.08,0.476-0.199,0.689-0.356c0.211-0.155,0.426-0.358,0.644-0.607v0.16
				c0,0.297,0.072,0.525,0.217,0.685c0.145,0.16,0.328,0.24,0.549,0.24c0.226,0,0.41-0.077,0.552-0.231
				c0.143-0.154,0.213-0.386,0.213-0.694v-7.147c0-0.305-0.065-0.534-0.199-0.69C224.397,460.212,224.208,460.134,223.963,460.134z
				 M222.897,466.975c-0.14,0.306-0.328,0.533-0.564,0.682c-0.235,0.148-0.495,0.223-0.781,0.223c-0.281,0-0.54-0.078-0.776-0.236
				c-0.238-0.154-0.425-0.387-0.562-0.695c-0.137-0.31-0.205-0.683-0.205-1.122c0-0.415,0.064-0.78,0.193-1.096
				c0.129-0.314,0.31-0.556,0.543-0.724c0.233-0.168,0.499-0.252,0.795-0.252c0.285,0,0.547,0.082,0.787,0.245
				c0.239,0.165,0.43,0.402,0.57,0.713c0.14,0.311,0.21,0.682,0.21,1.113C223.108,466.283,223.038,466.667,222.897,466.975z"/>
			<path id="XMLID_933_" style="fill:#CCC5B6;" d="M233.342,462.938c-0.406-0.255-0.878-0.383-1.415-0.383
				c-0.467,0-0.859,0.084-1.175,0.252c-0.317,0.168-0.628,0.411-0.932,0.728v-2.476c0-0.297-0.068-0.524-0.202-0.686
				c-0.135-0.159-0.326-0.239-0.576-0.239c-0.237,0-0.423,0.084-0.555,0.252c-0.133,0.168-0.198,0.416-0.198,0.744v7.075
				c0,0.305,0.068,0.535,0.205,0.692c0.136,0.156,0.319,0.233,0.549,0.233c0.226,0,0.412-0.077,0.558-0.233
				c0.146-0.157,0.22-0.388,0.22-0.692v-0.16c0.178,0.205,0.322,0.36,0.43,0.463c0.109,0.103,0.241,0.203,0.395,0.3
				c0.154,0.098,0.341,0.175,0.561,0.234s0.454,0.089,0.704,0.089c0.407,0,0.781-0.082,1.119-0.246
				c0.338-0.164,0.626-0.397,0.864-0.698c0.237-0.3,0.418-0.655,0.543-1.064c0.125-0.41,0.187-0.859,0.187-1.35
				c0-0.665-0.112-1.241-0.336-1.725C234.061,463.564,233.748,463.193,233.342,462.938z M232.553,467.348
				c-0.295,0.354-0.646,0.531-1.053,0.531c-0.479,0-0.866-0.174-1.161-0.521c-0.295-0.346-0.442-0.841-0.442-1.486
				c0-0.44,0.069-0.818,0.207-1.136c0.138-0.319,0.328-0.563,0.57-0.73c0.24-0.168,0.516-0.252,0.825-0.252
				c0.3,0,0.564,0.084,0.79,0.252c0.225,0.168,0.399,0.406,0.521,0.716c0.123,0.308,0.184,0.677,0.184,1.103
				C232.995,466.486,232.847,466.993,232.553,467.348z"/>
			<path id="XMLID_931_" style="fill:#CCC5B6;" d="M240.286,462.641c-0.112-0.065-0.229-0.098-0.353-0.098
				c-0.171,0-0.302,0.029-0.395,0.09c-0.093,0.058-0.181,0.173-0.264,0.344c-0.083,0.17-0.176,0.406-0.279,0.705l-1.3,3.71
				l-1.371-3.988c-0.091-0.277-0.195-0.489-0.314-0.638c-0.119-0.148-0.295-0.223-0.529-0.223c-0.135,0-0.264,0.035-0.389,0.107
				c-0.124,0.07-0.222,0.166-0.294,0.285c-0.071,0.117-0.107,0.246-0.107,0.385c0,0.131,0.061,0.341,0.184,0.629l1.995,5.022
				l-0.148,0.362c-0.111,0.265-0.209,0.466-0.294,0.601c-0.085,0.139-0.181,0.234-0.288,0.289c-0.107,0.056-0.254,0.084-0.44,0.084
				c-0.075,0-0.164-0.013-0.266-0.036c-0.083-0.024-0.169-0.036-0.256-0.036c-0.221,0-0.388,0.051-0.501,0.151
				c-0.113,0.101-0.169,0.245-0.169,0.431c0,0.272,0.119,0.461,0.356,0.564c0.237,0.103,0.593,0.153,1.068,0.153
				c0.487,0,0.873-0.073,1.161-0.223c0.287-0.147,0.517-0.361,0.691-0.638c0.174-0.277,0.352-0.659,0.535-1.146l2.113-5.531
				c0.051-0.143,0.095-0.283,0.13-0.421c0.037-0.14,0.061-0.246,0.078-0.321c0-0.123-0.032-0.239-0.093-0.35
				C240.486,462.794,240.398,462.706,240.286,462.641z"/>
		</g>
		<g id="XMLID_365_">
			<g id="XMLID_380_">
				<path id="XMLID_928_" style="fill:#CCC5B6;" d="M262.686,460.129c-0.533,0-0.954,0.068-1.26,0.204
					c-0.308,0.137-0.527,0.354-0.654,0.652c-0.13,0.301-0.191,0.702-0.191,1.211v0.487h-0.387c-0.543,0-0.814,0.191-0.814,0.582
					c0,0.174,0.065,0.315,0.196,0.423c0.132,0.111,0.315,0.164,0.559,0.164h0.446v4.294c0,0.318,0.074,0.563,0.228,0.729
					c0.154,0.17,0.344,0.254,0.573,0.254c0.243,0,0.439-0.084,0.589-0.254c0.155-0.167,0.23-0.411,0.23-0.729v-4.294h0.395
					c0.291,0,0.517-0.035,0.681-0.107c0.166-0.071,0.245-0.24,0.245-0.503c0-0.373-0.307-0.559-0.926-0.559h-0.395v-0.387
					c0-0.321,0.043-0.567,0.122-0.739c0.087-0.172,0.273-0.26,0.566-0.26c0.107,0,0.241,0.014,0.39,0.034
					c0.155,0.026,0.268,0.038,0.33,0.038c0.134,0,0.252-0.055,0.348-0.16c0.102-0.107,0.15-0.235,0.15-0.385
					C264.106,460.358,263.636,460.129,262.686,460.129z"/>
				<path id="XMLID_926_" style="fill:#CCC5B6;" d="M267.846,462.795c-0.32-0.171-0.648-0.255-0.99-0.255
					c-0.342,0-0.61,0.084-0.818,0.255c-0.202,0.171-0.4,0.421-0.592,0.755c-0.015-0.334-0.08-0.584-0.199-0.755
					c-0.119-0.171-0.313-0.255-0.583-0.255c-0.525,0-0.788,0.364-0.788,1.093v4.514c0,0.323,0.078,0.568,0.226,0.732
					c0.149,0.169,0.34,0.251,0.579,0.251c0.236,0,0.432-0.081,0.586-0.247c0.15-0.163,0.233-0.41,0.233-0.736v-1.356
					c0-0.486,0.014-0.899,0.045-1.238c0.033-0.337,0.09-0.631,0.17-0.878c0.084-0.243,0.201-0.425,0.352-0.554
					c0.149-0.122,0.345-0.186,0.582-0.186c0.172,0,0.374,0.036,0.602,0.108c0.227,0.073,0.371,0.112,0.434,0.112
					c0.157,0,0.304-0.064,0.44-0.194c0.135-0.126,0.204-0.292,0.204-0.488C268.328,463.192,268.168,462.966,267.846,462.795z"/>
				<path id="XMLID_922_" style="fill:#CCC5B6;" d="M273.933,466.052c0.233-0.122,0.351-0.385,0.351-0.791
					c0-0.44-0.112-0.87-0.339-1.296c-0.222-0.423-0.565-0.77-1.017-1.033c-0.453-0.27-0.997-0.403-1.629-0.403
					c-0.488,0-0.931,0.078-1.329,0.232c-0.402,0.157-0.735,0.381-1.008,0.675c-0.275,0.295-0.484,0.644-0.624,1.055
					c-0.145,0.41-0.218,0.854-0.218,1.333c0,1.017,0.293,1.823,0.87,2.418c0.576,0.593,1.385,0.889,2.429,0.889
					c0.453,0,0.857-0.061,1.207-0.179c0.349-0.117,0.64-0.269,0.874-0.446c0.232-0.182,0.404-0.368,0.521-0.566
					c0.111-0.194,0.167-0.365,0.167-0.512c0-0.167-0.048-0.294-0.152-0.386c-0.104-0.093-0.237-0.139-0.405-0.139
					c-0.152,0-0.271,0.038-0.355,0.108c-0.202,0.189-0.367,0.34-0.493,0.449c-0.128,0.113-0.264,0.218-0.415,0.313
					c-0.15,0.097-0.307,0.17-0.466,0.213c-0.16,0.048-0.336,0.069-0.531,0.069c-0.29,0-0.552-0.07-0.792-0.212
					c-0.24-0.145-0.431-0.357-0.578-0.636c-0.145-0.28-0.216-0.606-0.222-0.974h3.171
					C273.372,466.233,273.699,466.173,273.933,466.052z M269.777,465.313c0.055-0.546,0.213-0.957,0.472-1.236
					c0.26-0.28,0.592-0.418,0.995-0.418c0.426,0,0.764,0.136,1.025,0.412c0.261,0.273,0.407,0.688,0.446,1.242H269.777z"/>
				<path id="XMLID_919_" style="fill:#CCC5B6;" d="M280.673,466.052c0.231-0.122,0.352-0.385,0.352-0.791
					c0-0.44-0.116-0.87-0.341-1.296c-0.222-0.423-0.564-0.77-1.013-1.033c-0.46-0.27-1.003-0.403-1.634-0.403
					c-0.486,0-0.932,0.078-1.33,0.232c-0.4,0.157-0.736,0.381-1.009,0.675c-0.273,0.295-0.48,0.644-0.622,1.055
					c-0.145,0.41-0.218,0.854-0.218,1.333c0,1.017,0.291,1.823,0.868,2.418c0.58,0.593,1.387,0.889,2.43,0.889
					c0.453,0,0.859-0.061,1.208-0.179c0.348-0.117,0.641-0.269,0.872-0.446c0.234-0.182,0.408-0.368,0.519-0.566
					c0.116-0.194,0.171-0.365,0.171-0.512c0-0.167-0.047-0.294-0.15-0.386c-0.104-0.093-0.238-0.139-0.406-0.139
					c-0.151,0-0.27,0.038-0.355,0.108c-0.202,0.189-0.367,0.34-0.492,0.449c-0.127,0.113-0.264,0.218-0.415,0.313
					c-0.152,0.097-0.307,0.17-0.469,0.213c-0.157,0.048-0.335,0.069-0.527,0.069c-0.291,0-0.556-0.07-0.795-0.212
					c-0.238-0.145-0.431-0.357-0.575-0.636c-0.144-0.28-0.218-0.606-0.222-0.974h3.17
					C280.111,466.233,280.438,466.173,280.673,466.052z M276.519,465.313c0.053-0.546,0.211-0.957,0.47-1.236
					c0.261-0.28,0.592-0.418,0.995-0.418c0.425,0,0.764,0.136,1.026,0.412c0.257,0.273,0.407,0.688,0.446,1.242H276.519z"/>
				<path id="XMLID_390_" style="fill:#CCC5B6;" d="M286.684,462.938c-0.42-0.257-0.883-0.387-1.379-0.387
					c-0.415,0-0.79,0.09-1.114,0.268c-0.331,0.176-0.648,0.452-0.952,0.827v-0.194c0-0.297-0.071-0.52-0.218-0.678
					c-0.143-0.155-0.329-0.233-0.56-0.233c-0.233,0-0.419,0.078-0.554,0.228c-0.133,0.154-0.199,0.382-0.199,0.691v6.995
					c0,0.354,0.051,0.62,0.145,0.807c0.102,0.183,0.301,0.274,0.607,0.274c0.517,0,0.777-0.358,0.777-1.068v-2.434
					c0.286,0.358,0.586,0.635,0.9,0.817c0.313,0.187,0.704,0.279,1.166,0.279c0.385,0,0.741-0.076,1.079-0.228
					c0.334-0.152,0.622-0.372,0.868-0.653c0.245-0.283,0.44-0.632,0.58-1.05c0.14-0.418,0.21-0.878,0.21-1.376
					c0-0.677-0.122-1.261-0.366-1.758C287.433,463.571,287.102,463.195,286.684,462.938z M286.207,466.94
					c-0.137,0.313-0.32,0.546-0.552,0.704c-0.23,0.153-0.481,0.233-0.748,0.233c-0.454,0-0.828-0.179-1.133-0.536
					c-0.307-0.358-0.46-0.862-0.46-1.504c0-0.687,0.155-1.204,0.462-1.558c0.307-0.35,0.684-0.527,1.131-0.527
					c0.281,0,0.54,0.083,0.77,0.247c0.229,0.163,0.411,0.398,0.542,0.705c0.13,0.306,0.196,0.674,0.196,1.101
					C286.415,466.248,286.346,466.627,286.207,466.94z"/>
				<path id="XMLID_389_" style="fill:#CCC5B6;" d="M289.657,462.54c-0.238,0-0.428,0.079-0.58,0.244
					c-0.146,0.163-0.222,0.403-0.222,0.722v4.642c0,0.313,0.076,0.555,0.222,0.729c0.152,0.17,0.342,0.254,0.58,0.254
					c0.238,0,0.432-0.082,0.588-0.251c0.154-0.164,0.232-0.409,0.232-0.731v-4.688c0-0.286-0.077-0.512-0.232-0.675
					C290.089,462.619,289.895,462.54,289.657,462.54z"/>
				<path id="XMLID_388_" style="fill:#CCC5B6;" d="M289.674,460.199c-0.217,0-0.407,0.076-0.571,0.223
					c-0.166,0.149-0.247,0.339-0.247,0.568c0,0.253,0.08,0.447,0.242,0.586c0.158,0.138,0.35,0.209,0.576,0.209
					c0.22,0,0.408-0.071,0.566-0.21c0.157-0.14,0.236-0.335,0.236-0.585c0-0.257-0.082-0.454-0.244-0.591
					C290.071,460.267,289.887,460.199,289.674,460.199z"/>
				<path id="XMLID_387_" style="fill:#CCC5B6;" d="M297.015,467.569l-1.662-2.614l0.861-0.788c0.438-0.395,0.658-0.714,0.658-0.951
					c0-0.192-0.068-0.354-0.2-0.483c-0.138-0.128-0.306-0.192-0.509-0.192c-0.169,0-0.313,0.043-0.432,0.13
					c-0.121,0.086-0.29,0.251-0.517,0.486l-1.822,1.913v-3.933c0-0.329-0.074-0.581-0.221-0.751
					c-0.147-0.171-0.344-0.257-0.593-0.257c-0.256,0-0.457,0.093-0.596,0.283c-0.136,0.188-0.207,0.462-0.207,0.82v6.914
					c0,0.323,0.073,0.568,0.215,0.732c0.141,0.169,0.339,0.251,0.588,0.251c0.213,0,0.405-0.084,0.566-0.254
					c0.164-0.167,0.247-0.406,0.247-0.719v-1.29l0.88-0.83l1.428,2.352c0.182,0.278,0.329,0.472,0.435,0.58
					c0.107,0.109,0.261,0.16,0.459,0.16c0.226,0,0.412-0.073,0.553-0.222c0.142-0.15,0.214-0.351,0.214-0.609
					c0-0.089-0.029-0.189-0.082-0.288C297.227,467.909,297.136,467.765,297.015,467.569z"/>
				<path id="XMLID_386_" style="fill:#CCC5B6;" d="M299.207,467.343c-0.251,0-0.459,0.087-0.63,0.262
					c-0.171,0.173-0.257,0.381-0.257,0.622c0,0.287,0.091,0.51,0.269,0.665c0.179,0.159,0.389,0.238,0.633,0.238
					c0.237,0,0.444-0.079,0.624-0.241c0.175-0.157,0.264-0.38,0.264-0.662c0-0.243-0.089-0.454-0.264-0.626
					C299.666,467.43,299.455,467.343,299.207,467.343z"/>
				<path id="XMLID_385_" style="fill:#CCC5B6;" d="M306.592,466.416c-0.166,0-0.308,0.055-0.422,0.156
					c-0.113,0.104-0.219,0.245-0.318,0.427c-0.177,0.31-0.381,0.538-0.616,0.69c-0.23,0.149-0.509,0.225-0.834,0.225
					c-0.24,0-0.463-0.045-0.666-0.141c-0.201-0.094-0.372-0.229-0.516-0.409c-0.143-0.18-0.252-0.398-0.325-0.652
					c-0.075-0.256-0.114-0.537-0.114-0.842c0-0.646,0.147-1.161,0.439-1.533c0.293-0.375,0.682-0.561,1.158-0.561
					c0.333,0,0.606,0.075,0.82,0.227c0.219,0.147,0.425,0.376,0.623,0.674c0.108,0.158,0.209,0.27,0.299,0.339
					c0.09,0.069,0.201,0.104,0.338,0.104c0.202,0,0.377-0.068,0.524-0.203c0.144-0.135,0.214-0.3,0.214-0.491
					c0-0.192-0.063-0.397-0.192-0.617c-0.127-0.218-0.314-0.424-0.556-0.62c-0.245-0.192-0.54-0.352-0.891-0.474
					c-0.353-0.124-0.736-0.185-1.156-0.185c-0.674,0-1.26,0.139-1.747,0.419c-0.485,0.278-0.858,0.673-1.113,1.183
					c-0.259,0.511-0.387,1.098-0.387,1.765c0,0.982,0.281,1.765,0.841,2.35c0.563,0.582,1.345,0.876,2.349,0.876
					c0.469,0,0.893-0.065,1.268-0.191c0.377-0.126,0.688-0.295,0.935-0.503c0.248-0.207,0.434-0.425,0.553-0.655
					c0.122-0.23,0.183-0.446,0.183-0.647c0-0.169-0.066-0.331-0.198-0.481C306.955,466.493,306.79,466.416,306.592,466.416z"/>
				<path id="XMLID_382_" style="fill:#CCC5B6;" d="M313.403,463.453c-0.288-0.291-0.628-0.518-1.026-0.675
					c-0.4-0.16-0.847-0.238-1.336-0.238c-0.482,0-0.924,0.078-1.326,0.233c-0.398,0.158-0.737,0.38-1.02,0.669
					c-0.281,0.288-0.498,0.637-0.648,1.045c-0.146,0.408-0.225,0.857-0.225,1.349c0,0.485,0.076,0.93,0.22,1.332
					c0.151,0.401,0.369,0.75,0.657,1.048c0.284,0.292,0.626,0.521,1.016,0.676c0.393,0.159,0.835,0.239,1.326,0.239
					c0.492,0,0.936-0.08,1.336-0.234c0.393-0.157,0.735-0.382,1.019-0.675c0.286-0.291,0.502-0.642,0.656-1.05
					c0.146-0.408,0.222-0.854,0.222-1.336c0-0.488-0.075-0.932-0.221-1.339C313.905,464.096,313.689,463.749,313.403,463.453z
					 M312.212,467.368c-0.29,0.373-0.682,0.558-1.171,0.558c-0.324,0-0.604-0.086-0.846-0.253c-0.24-0.168-0.424-0.409-0.554-0.729
					c-0.129-0.316-0.193-0.685-0.193-1.108c0-0.428,0.066-0.803,0.197-1.124c0.13-0.321,0.315-0.564,0.556-0.728
					c0.242-0.163,0.521-0.245,0.84-0.245c0.489,0,0.881,0.182,1.171,0.555c0.289,0.367,0.436,0.881,0.436,1.542
					C312.647,466.486,312.501,466.999,312.212,467.368z"/>
				<path id="XMLID_381_" style="fill:#CCC5B6;" d="M323.326,462.814c-0.32-0.173-0.705-0.263-1.147-0.263
					c-0.38,0-0.726,0.081-1.038,0.241c-0.314,0.161-0.606,0.408-0.882,0.738c-0.191-0.326-0.431-0.572-0.725-0.735
					c-0.292-0.162-0.642-0.244-1.048-0.244c-0.395,0-0.748,0.079-1.07,0.241c-0.319,0.156-0.62,0.403-0.903,0.738v-0.153
					c0-0.261-0.073-0.466-0.221-0.616c-0.15-0.145-0.335-0.221-0.558-0.221c-0.227,0-0.412,0.078-0.556,0.238
					c-0.14,0.157-0.21,0.389-0.21,0.694v4.636c0,0.337,0.078,0.592,0.235,0.765c0.156,0.171,0.357,0.258,0.605,0.258
					c0.248,0,0.447-0.087,0.602-0.258c0.149-0.173,0.227-0.428,0.227-0.765v-2.189c0-0.683,0.086-1.206,0.253-1.566
					c0.169-0.369,0.517-0.55,1.048-0.55c0.264,0,0.459,0.071,0.582,0.22c0.121,0.142,0.197,0.33,0.226,0.552
					c0.027,0.226,0.04,0.544,0.04,0.952v2.581c0,0.342,0.078,0.594,0.232,0.768c0.148,0.17,0.35,0.255,0.595,0.255
					c0.254,0,0.454-0.085,0.61-0.255c0.156-0.174,0.23-0.426,0.23-0.768v-2.153c0-0.694,0.063-1.178,0.178-1.452
					c0.109-0.209,0.259-0.383,0.451-0.508c0.191-0.125,0.394-0.191,0.608-0.191c0.264,0,0.463,0.071,0.596,0.215
					c0.128,0.142,0.209,0.318,0.238,0.528c0.029,0.21,0.044,0.486,0.044,0.837v2.725c0,0.337,0.078,0.592,0.234,0.765
					c0.157,0.171,0.356,0.258,0.604,0.258c0.252,0,0.458-0.085,0.611-0.255c0.154-0.174,0.229-0.426,0.229-0.768v-3.163
					c0-0.629-0.068-1.091-0.206-1.386C323.885,463.237,323.645,462.987,323.326,462.814z"/>
			</g>
			<g id="XMLID_366_">
				<path id="XMLID_379_" style="fill:#CCC5B6;" d="M245.029,465.443c-0.001-0.003-0.001-0.006-0.001-0.011
					C245.028,465.438,245.028,465.44,245.029,465.443z"/>
				<path id="XMLID_378_" style="fill:#CCC5B6;" d="M245.111,465.961C245.112,465.961,245.112,465.961,245.111,465.961
					c-0.029-0.146-0.054-0.294-0.072-0.438C245.058,465.669,245.082,465.816,245.111,465.961z"/>
				<path id="XMLID_377_" style="fill:#CCC5B6;" d="M245.647,467.466c-0.003-0.007-0.006-0.014-0.01-0.021
					C245.641,467.452,245.644,467.459,245.647,467.466z"/>
				<path id="XMLID_376_" style="fill:#CCC5B6;" d="M245.596,467.365c-0.014-0.027-0.027-0.056-0.04-0.083
					C245.569,467.311,245.582,467.338,245.596,467.365z"/>
				<path id="XMLID_375_" style="fill:#CCC5B6;" d="M245.262,466.541c0.08,0.25,0.175,0.492,0.286,0.724
					c-0.113-0.236-0.206-0.478-0.284-0.724H245.262z"/>
				<path id="XMLID_374_" style="fill:#CCC5B6;" d="M250.492,458.682l-0.076-0.26c0.299-0.063,0.523-0.329,0.523-0.647
					c0-0.363-0.296-0.659-0.66-0.659c-0.365,0-0.66,0.296-0.66,0.659c0,0.317,0.225,0.584,0.523,0.647l0.084,0.289
					c-1.021,0.141-1.834,0.539-1.834,0.539l0.144,0.44c0.617-0.206,1.153-0.331,1.64-0.383c0.476-0.051,0.834-0.073,1.126-0.073
					c0.313,0,0.545,0.025,0.809,0.069l0.075-0.476C252.186,458.828,251.454,458.603,250.492,458.682z"/>
				<path id="XMLID_373_" style="fill:#CCC5B6;" d="M245.209,461.189c-0.017,0.023-0.497,0.465-0.875,1.279
					c-0.016-0.025-0.035-0.051-0.056-0.074c-0.114-0.124-0.272-0.188-0.474-0.184c-0.002,0-0.006,0-0.01,0
					c-0.124,0-0.21-0.042-0.266-0.093c0.056-0.07,0.089-0.16,0.089-0.258c0-0.23-0.188-0.419-0.419-0.419
					c-0.23,0-0.417,0.189-0.417,0.419c0,0.231,0.188,0.417,0.417,0.417c0.037,0,0.071-0.005,0.105-0.012
					c0.103,0.113,0.266,0.214,0.504,0.209c0.124-0.002,0.214,0.03,0.273,0.097c0.07,0.075,0.093,0.185,0.1,0.267
					c0,0.002,0,0.004-0.002,0.004c-0.272,0.743-0.194,1.668-0.194,1.668l0.661,0.025c0.014-0.336,0.062-0.925,0.232-1.393
					c0.329-0.906,0.741-1.472,0.757-1.496l0.004-0.005c0.024-0.031,0.047-0.06,0.071-0.089l-0.196-0.142L245.209,461.189z"/>
				<path id="XMLID_372_" style="fill:#CCC5B6;" d="M257.051,459.787c-0.23,0-0.419,0.186-0.419,0.417
					c0,0.037,0.006,0.071,0.016,0.104c-0.115,0.104-0.215,0.267-0.211,0.506c0.002,0.123-0.03,0.213-0.097,0.273
					c-0.053,0.047-0.119,0.071-0.184,0.087c-0.492-0.689-1.098-1.109-1.098-1.109l-0.474,0.509c0.358,0.326,0.725,0.734,1.08,1.244
					c0.246,0.352,0.499,0.806,0.71,1.258l0.64-0.304c0,0-0.292-0.722-0.703-1.369c0.071-0.025,0.143-0.063,0.206-0.12
					c0.126-0.113,0.188-0.272,0.184-0.474c-0.001-0.13,0.041-0.218,0.093-0.275c0.071,0.054,0.16,0.089,0.258,0.089
					c0.231,0,0.418-0.188,0.418-0.419C257.469,459.974,257.282,459.787,257.051,459.787z"/>
				<path id="XMLID_371_" style="fill:#CCC5B6;" d="M255.39,465.537c-0.88,0.429-2.33,0.996-4.236,1.262
					c-0.75,0.104-1.475,0.143-2.143,0.143c-0.869,0-1.638-0.064-2.227-0.14c-0.672-0.084-1.198-0.188-1.52-0.261
					c0.078,0.245,0.171,0.487,0.284,0.724c0.002,0.006,0.005,0.013,0.008,0.018c0.013,0.027,0.027,0.056,0.04,0.083
					c0.014,0.027,0.027,0.055,0.041,0.079c0.004,0.008,0.007,0.015,0.01,0.021c0.189,0.357,0.417,0.684,0.676,0.968
					c0.899,0.984,1.816,1.139,1.825,1.141l0.015,0.002l0.013,0.005c0.009,0.003,0.821,0.265,2.057,0.265
					c1.216,0,2.409-0.244,3.546-0.729c0.842-0.431,1.639-1.085,2.033-1.668c0.306-0.452,0.526-0.934,0.656-1.434
					c0.069-0.266,0.124-0.692,0.092-1.141C256.311,465.042,255.92,465.279,255.39,465.537z"/>
				<path id="XMLID_367_" style="fill:#CCC5B6;" d="M252.079,459.655c-0.265-0.044-0.477-0.068-0.777-0.068
					c-0.279,0-0.626,0.022-1.089,0.07c-0.465,0.049-0.982,0.171-1.583,0.373c-0.842,0.282-1.604,0.725-2.204,1.28l-0.02,0.019
					c-0.089,0.081-0.275,0.254-0.488,0.525c-0.025,0.037-0.408,0.578-0.709,1.408c-0.226,0.621-0.216,1.526-0.216,1.537v0.001
					c0,0.212,0.013,0.423,0.036,0.632c0,0.005,0,0.008,0.001,0.011c0.002,0.027,0.007,0.053,0.01,0.08
					c0.018,0.144,0.043,0.291,0.074,0.438c0.438,0.112,3.048,0.721,5.967,0.314c1.829-0.254,3.218-0.795,4.061-1.204
					c0.701-0.34,1.151-0.647,1.325-0.773c-0.173-0.643-0.651-1.65-1.089-2.278C254.124,460.228,252.772,459.77,252.079,459.655z
					 M248.435,464.914c-0.972,0-1.759-0.787-1.759-1.76c0-0.972,0.788-1.76,1.759-1.76c0.973,0,1.761,0.788,1.761,1.76
					C250.196,464.127,249.408,464.914,248.435,464.914z M253.585,463.617c-0.601,0-1.088-0.489-1.088-1.09
					c0-0.603,0.487-1.09,1.088-1.09c0.6,0,1.09,0.487,1.09,1.09C254.675,463.128,254.185,463.617,253.585,463.617z"/>
			</g>
		</g>
	</g>
</g>
</svg>
